<svg id="Capa_1" data-name="Capa 1" xmlns="http://www.w3.org/2000/svg" xmlns:xlink="http://www.w3.org/1999/xlink" viewBox="0 0 100 53.63"><defs><style>.cls-1{fill:url(#Degradado_sin_nombre_5);}.cls-2{fill:#fee414;}.cls-3,.cls-8{fill:#fff;}.cls-4{fill:#cc8a0f;}.cls-5{fill:#f6cb12;}.cls-6{fill:url(#Degradado_sin_nombre_3);}.cls-7{font-size:17.26px;fill:#ffe610;font-family:OldEnglishTextMT, Old English Text MT;}.cls-8{font-size:11.46px;font-family:Hermona;}.cls-9{letter-spacing:-0.01em;}.cls-10{letter-spacing:-0.01em;}.cls-11{letter-spacing:0.01em;}</style><linearGradient id="Degradado_sin_nombre_5" x1="200.46" y1="245.59" x2="300.46" y2="245.59" gradientUnits="userSpaceOnUse"><stop offset="0" stop-color="#009"/><stop offset="0.18" stop-color="#06009f"/><stop offset="0.42" stop-color="#1600b0"/><stop offset="0.7" stop-color="#3100cd"/><stop offset="0.99" stop-color="#5500f3"/></linearGradient><linearGradient id="Degradado_sin_nombre_3" x1="219.49" y1="266.06" x2="276.25" y2="266.06" gradientUnits="userSpaceOnUse"><stop offset="0" stop-color="#009"/><stop offset="0.32" stop-color="#1800b3"/><stop offset="0.99" stop-color="#5500f3"/></linearGradient></defs><path class="cls-1" d="M300.29,251.11v-2.76a7.08,7.08,0,0,0,.17-1.55,7.78,7.78,0,0,0-.28-2l-.54-1.95a10.71,10.71,0,0,0-4.43-13.21l-.57-.33h0l-.09,0-.74-.38-.26-.06,0,0-.11,0h0l-.24-.09-.12,0-.52-.16-.08,0a11.56,11.56,0,0,0-1.33-.25h0c-.19,0-.38,0-.59-.06h-.12c-.29,0-.56,0-.84,0h-.16l-.65,0h-.19a1.61,1.61,0,0,1-.92-.76,2.33,2.33,0,0,1-.22-.45l-.05-.2v-.06l-.33-1.95h-4.38V226a3.09,3.09,0,0,0-1,0,3.06,3.06,0,0,0-5.32,0l-.35,0a2.81,2.81,0,0,0-2.31,1.19,3.07,3.07,0,0,0-1.17,5.56c0,.1,0,.2.07.3h0l.28,1.5c.08.43.15.86.21,1.23H256.47v.11h-2.74a4.72,4.72,0,0,0,.69-.72,4.81,4.81,0,0,0,.89-3.47v0a4.54,4.54,0,0,0-.18-.92l1.5-1.5v-.3l0,0,.15-.6a4,4,0,0,0,.11-1V225H228.58l5.09,4.25.08.14a3.48,3.48,0,0,1,.08.87v5.12H220.5v-.16a2.26,2.26,0,0,0,0-.26V222.32l-4.36,3.19-.23.73a2.58,2.58,0,0,1-2.46,1.78h-3.8a7.21,7.21,0,0,0-7.2,7.21v1.87l-2,2,2,2V243a.34.34,0,0,1,0,.1,6.15,6.15,0,0,0,.06.87h-.07v15.85a7.21,7.21,0,0,0,7.2,7.21h3.64a7.22,7.22,0,0,0,7.21-7.21v-3.6l5.08,3.24,1.31-1.69.22-.27a7.49,7.49,0,0,0,2.28,1,8.12,8.12,0,0,0,3.72-.07l1.75-.38,2.49,1.59,1.31-1.06a19.19,19.19,0,0,1,1.81-1.3c.2-.14.42-.27.66-.41v5.76l-.22.13-.61.37-1.51,1-.14,1.09c0,.23-.06.45-.08.68l-.37,3.08,3.06-.49c.91-.14,1.84-.27,2.66-.37l1-.15a27,27,0,0,1,2.95-.32h.62l4.08-.32-3-4.18v-6.23l4.89,3.12,1.31-1.68A2.6,2.6,0,0,1,256,258a7.19,7.19,0,0,0,2.27.95,8,8,0,0,0,3.72-.07l2.05-.44,1.78,1.13,1.31-1a21.18,21.18,0,0,1,1.81-1.3,18.9,18.9,0,0,1,1.94-1.1,10.77,10.77,0,0,1,1-.45l6.35,4.05,1.31-1.06a21.81,21.81,0,0,1,1.81-1.3c.34-.22.72-.45,1.15-.68v3c.18,1.5-2.44,3.81-3.37,4.44l-4.39,3h17.13a8.4,8.4,0,0,0,6.64-3.47,8.84,8.84,0,0,0,1.6-4.11,17.06,17.06,0,0,0,.15-2.81C300.28,254.79,300.28,252.92,300.29,251.11Z" transform="translate(-200.46 -222.32)"/><path class="cls-2" d="M297.23,235.11a8.32,8.32,0,0,0-3.21-3.49h0l-.54-.3a2.59,2.59,0,0,0-1,.93l-.05.09v0l0,0-.07.11h0l0,.09A8.36,8.36,0,0,0,292,236v1.17l0,0-1.71,1.71L292,240.6l0,0v3.27a1.71,1.71,0,0,0,2.77,1.6,8.61,8.61,0,0,0,2.51-3.1,8.47,8.47,0,0,0,.79-3.56A8.39,8.39,0,0,0,297.23,235.11Z" transform="translate(-200.46 -222.32)"/><path class="cls-2" d="M297.94,250v-.21a4.5,4.5,0,0,1-1.74,1.12,4.81,4.81,0,0,1-4.19-.65v5.27l0,0-1.71,1.71,1.71,1.71,0,0v3a.79.79,0,0,1-.78.79H290a.79.79,0,0,1-.78-.79v-9.65s-.27-.26-.32-.31-.23-.27-.34-.41a4.18,4.18,0,0,1-.72-1.74c-.12-.66-.05-1.33-.18-2a4.88,4.88,0,0,0-.87-2,4.68,4.68,0,0,0-1.89-1.52h0v0h0v8.5h0v0h0v6.51c0,4.35-3.31,5.17-3.31,5.17h10.34a6,6,0,0,0,4.75-2.53,6.6,6.6,0,0,0,1.17-3.05,15.23,15.23,0,0,0,.13-2.43C297.93,254.44,297.94,252.22,297.94,250Z" transform="translate(-200.46 -222.32)"/><path class="cls-2" d="M297.92,245.39a4.36,4.36,0,0,1-7.37-2.45,21,21,0,0,1-1.32,2V234.15s0-.05,0-.08,0-.07,0-.1v-.22h0v-.08a.28.28,0,0,1,0-.09,1.37,1.37,0,0,1,0-.19c0-.08,0-.16,0-.25a2.73,2.73,0,0,1,.9-1.51l.21-.17a2.9,2.9,0,0,1,1.19-.48h0a3,3,0,0,1,.43,0h.31a3,3,0,0,1,.42.06l-.1,0-.07,0-.25-.09h0l-.43-.13-.06,0a8.52,8.52,0,0,0-1-.19h0l-.45,0h-.83l-.95,0h-.22a3.81,3.81,0,0,1-2.69-1.81,4.31,4.31,0,0,1-.51-1.06l0-.11s0-.05,0-.07l0-.12s0,0,0-.06a1.06,1.06,0,0,1,0-.19h-.06v11.19l1,.85-1,1v3.59a5.67,5.67,0,0,1,3.12,2,5.8,5.8,0,0,1,.62,1,5.71,5.71,0,0,1,.43,3.93A2.54,2.54,0,0,0,291,248.9c-.05.12.94.68,1.05.74a5.24,5.24,0,0,0,1.27.47,5.31,5.31,0,0,0,2.93-.14,3,3,0,0,0,1.87-3.17A5.05,5.05,0,0,0,297.92,245.39Z" transform="translate(-200.46 -222.32)"/><path class="cls-3" d="M218.15,238.14V235h0v-8a4.93,4.93,0,0,1-4.69,3.4h-3.8a4.88,4.88,0,0,0-4.86,4.87v2.84l-1,1,1,1v2.65c0,.1,0,.2,0,.3a4.21,4.21,0,0,0,4.2,4.21h0a4.21,4.21,0,0,0,3.53-2V242h0a.69.69,0,1,0-.68.7.67.67,0,0,0,.58-.33.29.29,0,0,1,.05.22c-.1,1.7-1.71,2.71-3.48,2.86v-5.53l.81-.82-.81-.82v-4.13a1.51,1.51,0,0,1,1.5-1.51h1.9a1.52,1.52,0,0,1,1.51,1.51v3.94l-1,.95,1,.95v18.57a1.62,1.62,0,0,1-.1.54v-.27l-1.21-1.64-1.21,1.64-1.22-1.64L209,258.75a1.27,1.27,0,0,1,0-.2v-6.7a4.06,4.06,0,0,1,4.14,3.23,2.21,2.21,0,0,1,0,.49.57.57,0,0,1-.54.44.56.56,0,0,1-.36-.12h0a.33.33,0,0,0-.22-.08.31.31,0,0,0-.31.31.31.31,0,0,0,0,.13l.08.1a.79.79,0,0,0,1.37-.52V244.94h0a4.19,4.19,0,0,1-4.17,4.2h0a4.2,4.2,0,0,1-4.2-4.2v14.84a4.88,4.88,0,0,0,4.86,4.87h3.64a4.88,4.88,0,0,0,4.86-4.87V239.92L219,239Zm-6.74,24.2-2.07-2.86,0,0,.87-1.09,1.22,1.5,1.21-1.5.94,1.17Z" transform="translate(-200.46 -222.32)"/><path class="cls-3" d="M235.05,227.36l.21.17a2.38,2.38,0,0,1,.59.84,4.28,4.28,0,0,1,.32,1.9v3.58a4.17,4.17,0,0,1,.7-1.23,3.56,3.56,0,0,1,1.14-.86,4.26,4.26,0,0,1,2-.37v-1.68a1.14,1.14,0,0,0-.09-.46,3.54,3.54,0,0,0-.19-.39s.27,0,.3,0h1.84c.33,0,.65,0,1,0l.53,0a2.74,2.74,0,0,1,.12.75,9.77,9.77,0,0,1,0,1.21v32.47a1.18,1.18,0,0,1-.46.81l-.19.14-.23.15c-.33.21-.68.4-1,.62l-.59.38-.09.67c.9-.15,1.81-.27,2.72-.39a42.15,42.15,0,0,1,4.23-.48l.36-.22a3.21,3.21,0,0,1-.45-.24,1.71,1.71,0,0,1-.33-.37,1,1,0,0,1-.16-.62v-32.6a1,1,0,0,1,.16-.61,1.71,1.71,0,0,1,.33-.37,3.21,3.21,0,0,1,.45-.24l-2.31-1.06h1.54a3.76,3.76,0,0,1,2.25,1.2,4,4,0,0,1,.93,1.84,2.3,2.3,0,0,1-.28,1.63,1.34,1.34,0,0,1-1.46.56c-.09,0-.1,0,0,.11a1.74,1.74,0,0,0,1,.47,3.3,3.3,0,0,0,1.46-.09,2.35,2.35,0,0,0,1.24-.86,2.46,2.46,0,0,0,.41-1.8,2.67,2.67,0,0,0-.39-1.13,3.56,3.56,0,0,0-.79-.86,5.91,5.91,0,0,0-1-.63,10.53,10.53,0,0,0-1.13-.44h3.41a1.87,1.87,0,0,0,.38,0l.07,0a.85.85,0,0,0,.39-.17.13.13,0,0,1,.07,0l.31-.31a.13.13,0,0,1,0-.07.85.85,0,0,0,.17-.39s0,0,0-.07a1.87,1.87,0,0,0,0-.38ZM244,246.2l1.33-1.31,1.31,1.31-1.31,1.3Zm0-3.29,1.33-1.3,1.31,1.3-1.31,1.31Z" transform="translate(-200.46 -222.32)"/><path class="cls-3" d="M231.16,254.16a4.25,4.25,0,0,0,.58,1.19,2.2,2.2,0,0,0,.87.7,6.06,6.06,0,0,1-2.65.09,5.08,5.08,0,0,1-1.63-.69,3,3,0,0,1-1.05-1.22,6.45,6.45,0,0,0-1,.7,7.42,7.42,0,0,0-.69.66c-.23.26-.43.49-.59.71l-5.83-3.72a3.37,3.37,0,0,0,.46-.25A1.73,1.73,0,0,0,220,252a1,1,0,0,0,.16-.61v-9.83a1,1,0,0,0-.16-.61,2,2,0,0,0-.33-.37,3.33,3.33,0,0,0-.46-.24l2.32-1.06h-1.86a1.49,1.49,0,0,1-1.51-1.5h6.73l-.17.21a3.48,3.48,0,0,0-.49.87,4.61,4.61,0,0,0-.28,1.83v10.1a1.09,1.09,0,0,0,.45.91l2.6,1.86a1.53,1.53,0,0,0,.09-.4c0-.13,0-.44,0-.93V240.65a4.59,4.59,0,0,0-.29-1.83,3.48,3.48,0,0,0-.49-.87l-.17-.21h5.68l-.17.21a3.77,3.77,0,0,0-.5.87,4.8,4.8,0,0,0-.28,1.83v11.4A6.63,6.63,0,0,0,231.16,254.16Z" transform="translate(-200.46 -222.32)"/><path class="cls-3" d="M243.19,252.35a1.35,1.35,0,0,0,.31.38,1.56,1.56,0,0,0,.49.22,16.14,16.14,0,0,0-2.64,1.05,24,24,0,0,0-4.16,2.66L231.36,253a1.5,1.5,0,0,0,.46-.22,1.39,1.39,0,0,0,.33-.38,1.11,1.11,0,0,0,.16-.63v-2.78a2.27,2.27,0,0,0,.88.53,7.17,7.17,0,0,0,1.17.33,7.93,7.93,0,0,0,1.74.16v1.2a1.1,1.1,0,0,0,.46.91l2.59,1.86a2.29,2.29,0,0,0,.09-.42c0-.12,0-.43,0-.92v-2.52a1.73,1.73,0,0,0-1-1.62l-4.7-2.21a2.17,2.17,0,0,1-.9-.8,2.09,2.09,0,0,1-.33-1.13v-2.42a1,1,0,0,0-.16-.61,1.5,1.5,0,0,0-.33-.37,4,4,0,0,0-.46-.25l2.32-1h-1.86a1.43,1.43,0,0,1-1.07-.44,1.45,1.45,0,0,1-.44-1.07H244l-.17.18a4.71,4.71,0,0,0-.49.91,4.61,4.61,0,0,0-.28,1.83v3.36a6.77,6.77,0,0,0-1-1.4,6.09,6.09,0,0,0-1.19-1,3,3,0,0,0-1.65-.44v-2H236.1v3a1.37,1.37,0,0,0,.25.79,1.43,1.43,0,0,0,.63.54l4.59,2a2.23,2.23,0,0,1,1.09.89,2.47,2.47,0,0,1,.39,1.35v3.55A1.2,1.2,0,0,0,243.19,252.35Z" transform="translate(-200.46 -222.32)"/><path class="cls-3" d="M259.84,252.55a6.57,6.57,0,0,0,.27,2.1,3.87,3.87,0,0,0,.58,1.19,2.19,2.19,0,0,0,.84.7,5.77,5.77,0,0,1-2.65.09,4.87,4.87,0,0,1-1.63-.68,3.21,3.21,0,0,1-1.06-1.23,6.32,6.32,0,0,0-1,.72c-.27.25-.5.46-.68.65s-.44.49-.6.7l-5.82-3.72a1.54,1.54,0,0,0,.45-.21,1.39,1.39,0,0,0,.33-.38,1.15,1.15,0,0,0,.16-.64V247.7a1.5,1.5,0,0,1,.92-1.43l6-2.78v-3.75h-3a3.78,3.78,0,0,0-.1.63,6.18,6.18,0,0,0,0,.77v1.2a3.33,3.33,0,0,0-1.54.36,5.21,5.21,0,0,0-1.19.83,6.69,6.69,0,0,0-1.06,1.19V242a1,1,0,0,0-.16-.61,1.34,1.34,0,0,0-.33-.37,2.46,2.46,0,0,0-.45-.25l2.31-1h-1.72a1.5,1.5,0,0,1-1.51-1.51h13.55l-.18.18a5,5,0,0,0-.49.91,4.59,4.59,0,0,0-.28,1.82V243c0,.7,0,1.51,0,2.44s0,1.83,0,2.73v4.34Zm-3.93,1.5a2,2,0,0,0,.09-.42c0-.11,0-.42,0-.91v-8c-.21.12-.5.25-.86.41a6,6,0,0,0-1,.57,3.94,3.94,0,0,0-.88.85,1.82,1.82,0,0,0-.37,1.15v3.58a1.07,1.07,0,0,0,.46.91Z" transform="translate(-200.46 -222.32)"/><path class="cls-3" d="M271.69,252.33a1.57,1.57,0,0,0,.31.39,2.59,2.59,0,0,0,.5.24,14.27,14.27,0,0,0-2.65,1,22.45,22.45,0,0,0-2.16,1.23,23.45,23.45,0,0,0-2,1.44L259.86,253a2.84,2.84,0,0,0,.46-.24,1.62,1.62,0,0,0,.33-.39,1.09,1.09,0,0,0,.16-.63v-9.79a1,1,0,0,0-.16-.61,1.5,1.5,0,0,0-.33-.37,2.87,2.87,0,0,0-.46-.25l2.32-1.05h-1.86a1.5,1.5,0,0,1-1.51-1.51h6.74l-.18.18a5,5,0,0,0-.49.91,4.59,4.59,0,0,0-.28,1.82v10.11a1.08,1.08,0,0,0,.46.91l2.59,1.86a1.53,1.53,0,0,0,.09-.4c0-.13,0-.44,0-.93V241a4.78,4.78,0,0,0-.28-1.82,5,5,0,0,0-.49-.91l-.18-.18h5.69l-.18.18a5,5,0,0,0-.49.91,4.59,4.59,0,0,0-.28,1.82V251.7A1.18,1.18,0,0,0,271.69,252.33Z" transform="translate(-200.46 -222.32)"/><path class="cls-3" d="M284,251.84a1.35,1.35,0,0,0,.14.64,1.37,1.37,0,0,0,.32.38,1.45,1.45,0,0,0,.49.21,16.25,16.25,0,0,0-2.65,1.05,24.79,24.79,0,0,0-2.16,1.23c-.72.47-1.39,1-2,1.44l-5.82-3.72a1.19,1.19,0,0,0,.79-.59,1.15,1.15,0,0,0,.16-.64V242a1,1,0,0,0-.16-.61,1.52,1.52,0,0,0-.33-.37,2.55,2.55,0,0,0-.46-.25l2.32-1h-1.86a1.46,1.46,0,0,1-1.07-.44,1.43,1.43,0,0,1-.44-1.07h13.68l-.17.18a4.88,4.88,0,0,0-.5.91,4.78,4.78,0,0,0-.28,1.82v10.7Zm-3.89,2.21a2,2,0,0,0,.09-.42c0-.11,0-.42,0-.91v-13H277v11.54a1.09,1.09,0,0,0,.45.91Z" transform="translate(-200.46 -222.32)"/><path class="cls-4" d="M276,229.59a.68.68,0,0,0,.34-.14,4.78,4.78,0,0,0,1.11,1,1.15,1.15,0,0,1-1.35.69A7.82,7.82,0,0,0,276,229.59Z" transform="translate(-200.46 -222.32)"/><path class="cls-4" d="M282,229.59a.68.68,0,0,1-.34-.14,4.78,4.78,0,0,1-1.11,1,1.15,1.15,0,0,0,1.35.69A7.82,7.82,0,0,1,282,229.59Z" transform="translate(-200.46 -222.32)"/><circle class="cls-5" cx="73.7" cy="7.89" r="0.73"/><circle class="cls-5" cx="83.33" cy="7.89" r="0.73"/><circle class="cls-5" cx="78.47" cy="5.24" r="0.73"/><circle class="cls-4" cx="75.46" cy="6.52" r="0.5"/><circle class="cls-4" cx="81.63" cy="6.52" r="0.5"/><path class="cls-5" d="M283,230.91a2,2,0,0,1-3.12-.64,6.61,6.61,0,0,1-.82-1.81h-.17a1.47,1.47,0,0,0-.16,0,7,7,0,0,1-.82,1.81,2,2,0,0,1-3.12.64,1.18,1.18,0,0,1-.37.23c.34,1.32.63,2.66.63,2.66a6.5,6.5,0,0,1,7.69,0s.29-1.34.63-2.66A1.18,1.18,0,0,1,283,230.91Z" transform="translate(-200.46 -222.32)"/><path class="cls-5" d="M282.68,234.11a6.57,6.57,0,0,0-7.6,0,16.39,16.39,0,0,1,.34,2.95c-.09.65.54.48.54.48s-.35-1.66,2.92-1.83c3.28.17,2.93,1.83,2.93,1.83s.63.17.53-.48A16.39,16.39,0,0,1,282.68,234.11ZM277,235.84l-.73-.89.31-1.09.71.86Zm2.07-.58h0l-.19.37-.6-1.19.62-1.14.58,1.14Zm2.09.3h0l-.22.29-.35-1.1.69-.89.34,1.06Z" transform="translate(-200.46 -222.32)"/><path class="cls-6" d="M275.5,266.32l.11-5.34h-4.86l-.12.24-.05,0a2.8,2.8,0,0,0-1.07-.21h-3.19l0,.08h0a2.64,2.64,0,0,0-1.08-.22h-.67a2.66,2.66,0,0,0-1.05.21,2.91,2.91,0,0,0-.4-.51h0a2.81,2.81,0,0,0-2-.83h-.57a2.64,2.64,0,0,0-1.12.23,2.69,2.69,0,0,0-.89.6,2.92,2.92,0,0,0-.61.9,2.77,2.77,0,0,0-.22,1.1v2.2h0l-.93.7.29.3,0,0a3.73,3.73,0,0,1-.69-.47l-.8-.62-2.1,1.47-.43-.76c.39-.26.57-.41.69-.5a4.47,4.47,0,0,0,1.12-1.34,3.65,3.65,0,0,0,.41-1.7,3.92,3.92,0,0,0-.65-2.17,4,4,0,0,0-1.63-1.42l-.55-.25L248,259.81l-.1,0a3.08,3.08,0,0,0-1.32.88,2.07,2.07,0,0,0-.51,1.38,2.74,2.74,0,0,0,.38,1.35l1,1.81-2.59,1.67v-3.23c0-.2,0-.33,0-.4l.51-.37-.65-2H237a2.83,2.83,0,0,0-1,.2l-.07-.2h-3.63l0,.07a2.75,2.75,0,0,0-1.06-.21h-.46a2.72,2.72,0,0,0-.86.14H225.7a2.48,2.48,0,0,0-.25-.3,3,3,0,0,0-.89-.61,2.84,2.84,0,0,0-1.12-.23H220.1l-.57,2,.48.34c0,.06,0,.2,0,.47V268c0,.27,0,.41,0,.47l-.52.37.66,2h3.29a2.84,2.84,0,0,0,1.12-.23,2.8,2.8,0,0,0,.89-.6l.07-.08h4.33a2.82,2.82,0,0,0,.83.12h.54a2.7,2.7,0,0,0,.94-.17l0,0h3.71l.06-.19a2.82,2.82,0,0,0,1,.19h7.6l2.79,4.26,3.7-2.6a4.65,4.65,0,0,0,.29.38,4.91,4.91,0,0,0,1.47,1.19,4.29,4.29,0,0,0,2,.47,4.13,4.13,0,0,0,1.9-.46A3.69,3.69,0,0,0,258.1,272a2.59,2.59,0,0,0,.55-1.48,1.64,1.64,0,0,0,0-.23,2.87,2.87,0,0,0,.76.48,2.8,2.8,0,0,0,1.12.23h.57a2.84,2.84,0,0,0,1.12-.23,2.81,2.81,0,0,0,.88-.6,3.27,3.27,0,0,0,.3-.35l.08,0a2.64,2.64,0,0,0,1.08.22h.67a2.84,2.84,0,0,0,1.05-.2l0,.08h3.23a2.81,2.81,0,0,0,1.07-.22h0l.09.23h5.56l-.49-3.5Zm-13.78-1.63,0,0h0ZM250.87,262l-.27-.28h0l.27.28Zm6.95,7a.5.5,0,0,0,.05.13l-.13-.06Z" transform="translate(-200.46 -222.32)"/><text class="cls-7" transform="translate(44 49.91)">&amp;</text><text class="cls-8" transform="translate(58.08 47.13)"><tspan class="cls-9">Cod</tspan><tspan x="12.74" y="0">e</tspan></text><text class="cls-8" transform="translate(20.37 47.13)">D<tspan class="cls-9" x="4.58" y="0">e</tspan><tspan x="8.16" y="0">s</tspan><tspan class="cls-10" x="12.07" y="0">i</tspan><tspan class="cls-11" x="14.23" y="0">g</tspan><tspan x="18.47" y="0">n</tspan></text></svg>